<svg width="46" height="45" viewBox="0 0 46 45" fill="none" xmlns="http://www.w3.org/2000/svg">
<path d="M29.2625 28.1251L24.65 23.5126M4.75625 40.6876C4.75625 40.6876 23.2625 34.1251 28.625 28.7626C29.4092 27.9796 30.0316 27.0498 30.4565 26.0262C30.8814 25.0027 31.1005 23.9055 31.1014 22.7973C31.1022 21.6891 30.8848 20.5916 30.4615 19.5674C30.0383 18.5432 29.4174 17.6124 28.6344 16.8282C27.8514 16.044 26.9216 15.4216 25.898 14.9967C24.8745 14.5718 23.7773 14.3527 22.6691 14.3518C21.5609 14.3509 20.4634 14.5684 19.4392 14.9916C18.415 15.4149 17.4842 16.0358 16.7 16.8188C11.3187 22.2001 4.75625 40.6876 4.75625 40.6876ZM16.7 26.2501L12.8562 22.4251L16.7 26.2501Z" stroke="black" stroke-width="2" stroke-linecap="round" stroke-linejoin="round"/>
<path d="M41.75 16.875C41.75 16.875 39.2562 13.125 35.1875 13.125C32.1125 13.125 28.625 16.875 28.625 16.875C28.625 16.875 31.1187 20.625 35.1875 20.625C39.2562 20.625 41.75 16.875 41.75 16.875Z" stroke="black" stroke-width="2" stroke-linecap="round" stroke-linejoin="round"/>
<path d="M28.625 3.75C28.625 3.75 24.875 6.24375 24.875 10.3125C24.875 14.3813 28.625 16.875 28.625 16.875C28.625 16.875 32.375 13.425 32.375 10.3125C32.375 6.24375 28.625 3.75 28.625 3.75Z" stroke="black" stroke-width="2" stroke-linecap="round" stroke-linejoin="round"/>
</svg>
