<svg width="45" height="45" viewBox="0 0 45 45" fill="none" xmlns="http://www.w3.org/2000/svg">
<path d="M21.6394 23.1216C21.7294 22.7286 21.9328 22.3706 22.2244 22.0922C22.3141 22.0032 22.4188 21.9309 22.5337 21.8785L22.545 21.8756C22.9091 21.9378 23.283 21.8543 23.5859 21.6431C23.8889 21.4319 24.0966 21.1099 24.1642 20.7468C24.2318 20.3837 24.1539 20.0086 23.9472 19.7025C23.7405 19.3965 23.4217 19.184 23.0597 19.111C21.9291 18.8719 20.9222 19.4569 20.3034 20.0391C19.6369 20.6606 19.0941 21.5522 18.8859 22.5422C18.8479 22.723 18.8458 22.9095 18.8799 23.0911C18.9139 23.2727 18.9834 23.4458 19.0843 23.6005C19.1853 23.7553 19.3157 23.8886 19.4682 23.993C19.6206 24.0973 19.7922 24.1706 19.973 24.2086C20.1538 24.2467 20.3403 24.2487 20.5219 24.2147C20.7035 24.1806 20.8766 24.1112 21.0313 24.0102C21.186 23.9093 21.3194 23.7789 21.4237 23.6264C21.5281 23.4739 21.6013 23.3024 21.6394 23.1216ZM23.3437 32.6278C24.5626 32.6278 25.7695 32.3878 26.8955 31.9213C28.0216 31.4549 29.0447 30.7713 29.9066 29.9094C30.7684 29.0476 31.4521 28.0244 31.9185 26.8984C32.3849 25.7723 32.625 24.5654 32.625 23.3466C32.625 22.1278 32.3849 20.9209 31.9185 19.7948C31.4521 18.6687 30.7684 17.6456 29.9066 16.7837C29.0447 15.9219 28.0216 15.2382 26.8955 14.7718C25.7695 14.3054 24.5626 14.0653 23.3437 14.0653C20.8822 14.0653 18.5215 15.0432 16.7809 16.7837C15.0403 18.5243 14.0625 20.885 14.0625 23.3466C14.0625 25.8081 15.0403 28.1688 16.7809 29.9094C18.5215 31.65 20.8822 32.6278 23.3437 32.6278ZM23.3437 29.8153C21.6281 29.8153 19.9828 29.1338 18.7696 27.9207C17.5565 26.7076 16.875 25.0622 16.875 23.3466C16.875 21.631 17.5565 19.9856 18.7696 18.7725C19.9828 17.5594 21.6281 16.8778 23.3437 16.8778C25.0594 16.8778 26.7047 17.5594 27.9178 18.7725C29.131 19.9856 29.8125 21.631 29.8125 23.3466C29.8125 25.0622 29.131 26.7076 27.9178 27.9207C26.7047 29.1338 25.0594 29.8153 23.3437 29.8153ZM25.8834 5.63908C28.0941 5.78251 30.1809 6.44064 31.6884 7.39126C35.0691 9.52595 36.3094 11.4835 37.3894 13.365C38.4694 15.2522 39.6 17.6569 39.6 21.3778C39.6 23.1216 39.4059 23.9935 39.2456 24.7247L39.2175 24.8513C39.0825 25.456 38.9728 26.0072 39.0881 27.4219C39.2153 29.3304 38.8775 31.2413 38.1038 32.9906C37.3416 34.7428 36.1322 36.3825 34.4953 37.4063C31.1681 39.4875 27.1519 39.9375 23.3859 38.4328C21.7125 37.7635 21.1978 37.6313 20.6353 37.5947C20.2031 37.5787 19.7705 37.5833 19.3387 37.6088H19.3219C18.7256 37.6313 17.9494 37.6622 16.875 37.6622C12.0094 37.6622 8.77499 34.7456 7.13249 31.5872C4.73905 26.9831 4.78124 19.9716 10.0969 15.7725C11.6662 14.535 12.0853 14.1581 12.5747 13.3425C13.455 11.8772 14.2987 10.7128 15.3281 9.70314C16.3603 8.69064 17.5303 7.88064 19.0125 7.06783C21.2091 5.85845 23.6616 5.49283 25.8834 5.63908ZM25.6978 8.44595C23.8978 8.32783 22.0022 8.63158 20.3653 9.53158C19.0322 10.2628 18.0928 10.9322 17.2997 11.7113C16.4981 12.4931 15.795 13.441 14.9878 14.7881C14.2003 16.0988 13.3931 16.7569 11.8378 17.9803C7.86937 21.1163 7.67249 26.5275 9.62999 30.2906C10.9125 32.76 13.3059 34.8469 16.875 34.8469C17.8959 34.8469 18.63 34.8216 19.2206 34.7991H19.2712C19.8309 34.7766 20.3287 34.7569 20.8097 34.7878C21.8728 34.8553 22.7644 35.1563 24.4294 35.8228C27.3291 36.9816 30.4059 36.6441 33.0075 35.0213C34.0369 34.3744 34.9228 33.2494 35.5275 31.8656C36.1266 30.4875 36.3938 28.9688 36.2869 27.6525C36.1434 25.9256 36.2869 25.0903 36.4697 24.2494L36.5006 24.1088C36.6413 23.4731 36.7875 22.8178 36.7875 21.3778C36.7875 18.3235 35.8931 16.4081 34.9481 14.7656C34.0031 13.1147 33.0441 11.5735 30.1866 9.77064C29.1319 9.10408 27.5147 8.56408 25.6978 8.44595Z" fill="black"/>
</svg>
