<svg width="29" height="29" viewBox="0 0 29 29" fill="none" xmlns="http://www.w3.org/2000/svg">
<g clip-path="url(#clip0_2_1357)">
<path d="M29.0036 14.5887C29.0036 6.5303 22.5112 -0.00195312 14.5036 -0.00195312C6.49237 -0.000140625 0 6.5303 0 14.5905C0 21.8713 5.30338 27.9069 12.2344 29.0017V18.8064H8.555V14.5905H12.238V11.3733C12.238 7.71748 14.4039 5.69836 17.7154 5.69836C19.3031 5.69836 20.9616 5.98292 20.9616 5.98292V9.57167H19.1327C17.3329 9.57167 16.7711 10.6972 16.7711 11.8518V14.5887H20.7912L20.1496 18.8045H16.7692V28.9999C23.7002 27.9051 29.0036 21.8695 29.0036 14.5887Z" fill="#F28300"/>
</g>
<defs>
<clipPath id="clip0_2_1357">
<rect width="29" height="29" fill="white"/>
</clipPath>
</defs>
</svg>
