<svg width="51" height="51" viewBox="0 0 51 51" fill="none" xmlns="http://www.w3.org/2000/svg">
<g clip-path="url(#clip0_2_1231)">
<path d="M51.0064 25.6562C51.0064 11.4846 39.5887 -0.00317383 25.5064 -0.00317383C11.4176 1.3672e-05 0 11.4846 0 25.6594C0 38.4636 9.32662 49.0779 21.5156 51.0032V33.0735H15.045V25.6594H21.522V20.0016C21.522 13.5724 25.3311 10.0215 31.1546 10.0215C33.9469 10.0215 36.8634 10.522 36.8634 10.522V16.8332H33.6472C30.4821 16.8332 29.4939 18.8126 29.4939 20.8431V25.6562H36.5638L35.4354 33.0703H29.4907V51C41.6797 49.0748 51.0064 38.4604 51.0064 25.6562Z" fill="#F28300"/>
</g>
<defs>
<clipPath id="clip0_2_1231">
<rect width="51" height="51" fill="white"/>
</clipPath>
</defs>
</svg>
