<svg width="38" height="35" viewBox="0 0 38 35" fill="none" xmlns="http://www.w3.org/2000/svg">
<path d="M19.0003 6.41209L17.2974 4.69243C13.3002 0.655778 5.97068 2.04877 3.32485 7.12376C2.08269 9.51075 1.80243 12.9571 4.07062 17.3554C6.25569 21.5904 10.8016 26.663 19.0003 32.1883C27.1991 26.663 31.7426 21.5904 33.93 17.3554C36.1982 12.9547 35.9203 9.51075 34.6758 7.12376C32.03 2.04877 24.7005 0.653445 20.7033 4.6901L19.0003 6.41209ZM19.0003 35C-17.4167 11.3587 7.78761 -7.0932 18.5823 2.6671C18.7248 2.79544 18.8649 2.92844 19.0003 3.0661C19.1343 2.92856 19.2738 2.79624 19.4183 2.66944C30.2107 -7.09786 55.4173 11.3564 19.0003 35Z" fill="#F28300"/>
</svg>
