<svg width="45" height="45" viewBox="0 0 45 45" fill="none" xmlns="http://www.w3.org/2000/svg">
<path d="M35.6044 24.1332C35.6166 28.7307 34.1635 34.6632 32.1094 35.4113C30.6197 35.9523 28.6388 33.1379 27.5925 29.551M14.4188 30.7913C9.11719 29.4657 0.49875 32.7798 9.11719 36.0948C12.4313 44.7132 15.7453 36.0948 14.4206 30.7913H14.4188ZM21.0769 9.60664C16.4803 9.59446 10.5469 11.0476 9.79969 13.1016C9.25875 14.5913 12.0731 16.5723 15.6591 17.6185L21.0769 9.60664Z" stroke="black" stroke-width="2" stroke-linecap="round" stroke-linejoin="round"/>
<path d="M35.625 24.1547C41.8706 18.4688 37.6162 7.58442 37.6162 7.58442C37.6162 7.58442 26.3513 4.27505 21.0469 9.57848C15.7434 14.881 14.4178 30.7913 14.4178 30.7913C14.4178 30.7913 29.3775 29.8407 35.625 24.1538V24.1547Z" stroke="black" stroke-width="2" stroke-linecap="round" stroke-linejoin="round"/>
<path d="M35.6325 24.1622C35.6325 24.1622 29.3344 23.1685 25.6884 19.5216C22.0416 15.8757 21.0478 9.57849 21.0478 9.57849" stroke="black" stroke-width="2" stroke-linecap="round" stroke-linejoin="round"/>
<path d="M30.3305 14.8814C31.0627 15.6136 32.2499 15.6136 32.9821 14.8814C33.7143 14.1492 33.7143 12.962 32.9821 12.2298C32.2499 11.4975 31.0627 11.4975 30.3305 12.2298C29.5982 12.962 29.5982 14.1492 30.3305 14.8814Z" fill="black"/>
<path d="M25.3125 7.17749C23.7216 7.63593 22.2356 8.39061 21.0478 9.57749C19.9378 10.6894 19.0012 12.2653 18.2147 14.0625M38.4375 19.6359C37.9313 21.2859 37.0519 22.8553 35.625 24.1547C34.08 25.5609 32.0025 26.6766 29.7506 27.5606L38.4375 19.6359Z" stroke="black" stroke-width="2" stroke-linecap="round" stroke-linejoin="round"/>
</svg>
