<svg width="29" height="29" viewBox="0 0 29 29" fill="none" xmlns="http://www.w3.org/2000/svg">
<g clip-path="url(#clip0_2_1355)">
<path d="M14.735 9.66461C12.0725 9.66461 9.89971 11.8375 9.89971 14.5C9.89971 17.1625 12.0725 19.3354 14.735 19.3354C17.3975 19.3354 19.5703 17.1625 19.5703 14.5C19.5703 11.8375 17.3975 9.66461 14.735 9.66461ZM29.2373 14.5C29.2373 12.4976 29.2554 10.5134 29.143 8.51471C29.0305 6.19314 28.5009 4.13275 26.8033 2.4351C25.1021 0.733824 23.0453 0.207844 20.7238 0.0953926C18.7215 -0.0170583 16.7373 0.00107896 14.7386 0.00107896C12.7363 0.00107896 10.7521 -0.0170583 8.75346 0.0953926C6.43193 0.207844 4.37158 0.737451 2.67396 2.4351C0.972717 4.13637 0.446747 6.19314 0.334298 8.51471C0.221849 10.5171 0.239986 12.5013 0.239986 14.5C0.239986 16.4987 0.221849 18.4866 0.334298 20.4853C0.446747 22.8069 0.976345 24.8673 2.67396 26.5649C4.3752 28.2662 6.43193 28.7922 8.75346 28.9046C10.7558 29.0171 12.7399 28.9989 14.7386 28.9989C16.741 28.9989 18.7251 29.0171 20.7238 28.9046C23.0453 28.7922 25.1057 28.2625 26.8033 26.5649C28.5046 24.8636 29.0305 22.8069 29.143 20.4853C29.2591 18.4866 29.2373 16.5024 29.2373 14.5ZM14.735 21.9399C10.6179 21.9399 7.29525 18.6172 7.29525 14.5C7.29525 10.3828 10.6179 7.0601 14.735 7.0601C18.8521 7.0601 22.1748 10.3828 22.1748 14.5C22.1748 18.6172 18.8521 21.9399 14.735 21.9399ZM22.4795 8.49294C21.5182 8.49294 20.742 7.71667 20.742 6.75539C20.742 5.79412 21.5182 5.01784 22.4795 5.01784C23.4407 5.01784 24.217 5.79412 24.217 6.75539C24.2173 6.98365 24.1725 7.20972 24.0853 7.42066C23.9981 7.6316 23.8701 7.82326 23.7087 7.98466C23.5473 8.14607 23.3557 8.27404 23.1447 8.36126C22.9338 8.44848 22.7077 8.49323 22.4795 8.49294Z" fill="#F28300"/>
</g>
<defs>
<clipPath id="clip0_2_1355">
<rect width="29" height="29" fill="white"/>
</clipPath>
</defs>
</svg>
