<svg width="51" height="51" viewBox="0 0 51 51" fill="none" xmlns="http://www.w3.org/2000/svg">
<g clip-path="url(#clip0_2_1233)">
<path d="M25.4995 16.9964C20.8172 16.9964 16.9961 20.8176 16.9961 25.5C16.9961 30.1824 20.8172 34.0036 25.4995 34.0036C30.1818 34.0036 34.003 30.1824 34.003 25.5C34.003 20.8176 30.1818 16.9964 25.4995 16.9964ZM51.0035 25.5C51.0035 21.9786 51.0354 18.4891 50.8377 14.9741C50.6399 10.8914 49.7086 7.26793 46.7231 4.28241C43.7313 1.29052 40.1143 0.365518 36.0316 0.167759C32.5103 -0.0299992 29.0208 0.00189749 25.5059 0.00189749C21.9846 0.00189749 18.4952 -0.0299992 14.9802 0.167759C10.8976 0.365518 7.27417 1.2969 4.28871 4.28241C1.29687 7.27431 0.371886 10.8914 0.174131 14.9741C-0.0236242 18.4955 0.00827181 21.985 0.00827181 25.5C0.00827181 29.015 -0.0236242 32.5109 0.174131 36.0259C0.371886 40.1086 1.30325 43.7321 4.28871 46.7176C7.28055 49.7095 10.8976 50.6345 14.9802 50.8322C18.5015 51.03 21.991 50.9981 25.5059 50.9981C29.0272 50.9981 32.5166 51.03 36.0316 50.8322C40.1143 50.6345 43.7376 49.7031 46.7231 46.7176C49.7149 43.7257 50.6399 40.1086 50.8377 36.0259C51.0418 32.5109 51.0035 29.0214 51.0035 25.5ZM25.4995 38.584C18.2591 38.584 12.4158 32.7405 12.4158 25.5C12.4158 18.2595 18.2591 12.416 25.4995 12.416C32.7399 12.416 38.5832 18.2595 38.5832 25.5C38.5832 32.7405 32.7399 38.584 25.4995 38.584ZM39.1191 14.9359C37.4286 14.9359 36.0635 13.5707 36.0635 11.8802C36.0635 10.1897 37.4286 8.82448 39.1191 8.82448C40.8096 8.82448 42.1747 10.1897 42.1747 11.8802C42.1752 12.2816 42.0965 12.6792 41.9432 13.0501C41.7898 13.4211 41.5647 13.7581 41.2809 14.042C40.997 14.3258 40.66 14.5509 40.289 14.7043C39.9181 14.8577 39.5205 14.9364 39.1191 14.9359Z" fill="#F28300"/>
</g>
<defs>
<clipPath id="clip0_2_1233">
<rect width="51" height="51" fill="white"/>
</clipPath>
</defs>
</svg>
