<svg width="125" height="79" viewBox="0 0 125 79" fill="none" xmlns="http://www.w3.org/2000/svg">
<path d="M1.494 74V61.4H3.906L9.27 70.292H7.992L13.266 61.4H15.66L15.696 74H12.96L12.942 65.594H13.446L9.234 72.668H7.92L3.618 65.594H4.23V74H1.494ZM18.6854 74V61.4H24.1394C25.2674 61.4 26.2394 61.586 27.0554 61.958C27.8714 62.318 28.5014 62.84 28.9454 63.524C29.3894 64.208 29.6114 65.024 29.6114 65.972C29.6114 66.908 29.3894 67.718 28.9454 68.402C28.5014 69.074 27.8714 69.59 27.0554 69.95C26.2394 70.31 25.2674 70.49 24.1394 70.49H20.3054L21.6014 69.212V74H18.6854ZM26.6954 74L23.5454 69.428H26.6594L29.8454 74H26.6954ZM21.6014 69.536L20.3054 68.168H23.9774C24.8774 68.168 25.5494 67.976 25.9934 67.592C26.4374 67.196 26.6594 66.656 26.6594 65.972C26.6594 65.276 26.4374 64.736 25.9934 64.352C25.5494 63.968 24.8774 63.776 23.9774 63.776H20.3054L21.6014 62.39V69.536ZM32.7857 74.144C32.3057 74.144 31.8917 73.982 31.5437 73.658C31.2077 73.322 31.0397 72.896 31.0397 72.38C31.0397 71.864 31.2077 71.45 31.5437 71.138C31.8917 70.814 32.3057 70.652 32.7857 70.652C33.2777 70.652 33.6917 70.814 34.0277 71.138C34.3637 71.45 34.5317 71.864 34.5317 72.38C34.5317 72.896 34.3637 73.322 34.0277 73.658C33.6917 73.982 33.2777 74.144 32.7857 74.144ZM47.8143 74.216C46.8183 74.216 45.9003 74.06 45.0603 73.748C44.2323 73.424 43.5063 72.968 42.8823 72.38C42.2703 71.792 41.7903 71.102 41.4423 70.31C41.1063 69.518 40.9383 68.648 40.9383 67.7C40.9383 66.752 41.1063 65.882 41.4423 65.09C41.7903 64.298 42.2763 63.608 42.9003 63.02C43.5243 62.432 44.2563 61.982 45.0963 61.67C45.9363 61.346 46.8603 61.184 47.8683 61.184C48.9843 61.184 49.9863 61.37 50.8743 61.742C51.7743 62.114 52.5303 62.654 53.1423 63.362L51.2703 65.09C50.8143 64.61 50.3163 64.256 49.7763 64.028C49.2363 63.788 48.6483 63.668 48.0123 63.668C47.4003 63.668 46.8423 63.764 46.3383 63.956C45.8343 64.148 45.3963 64.424 45.0243 64.784C44.6643 65.144 44.3823 65.57 44.1783 66.062C43.9863 66.554 43.8903 67.1 43.8903 67.7C43.8903 68.288 43.9863 68.828 44.1783 69.32C44.3823 69.812 44.6643 70.244 45.0243 70.616C45.3963 70.976 45.8283 71.252 46.3203 71.444C46.8243 71.636 47.3763 71.732 47.9763 71.732C48.5523 71.732 49.1103 71.642 49.6503 71.462C50.2023 71.27 50.7363 70.952 51.2523 70.508L52.9083 72.614C52.2243 73.13 51.4263 73.526 50.5143 73.802C49.6143 74.078 48.7143 74.216 47.8143 74.216ZM50.2443 72.236V67.502H52.9083V72.614L50.2443 72.236ZM55.617 74V61.4H61.071C62.199 61.4 63.171 61.586 63.987 61.958C64.803 62.318 65.433 62.84 65.877 63.524C66.321 64.208 66.543 65.024 66.543 65.972C66.543 66.908 66.321 67.718 65.877 68.402C65.433 69.074 64.803 69.59 63.987 69.95C63.171 70.31 62.199 70.49 61.071 70.49H57.237L58.533 69.212V74H55.617ZM63.627 74L60.477 69.428H63.591L66.777 74H63.627ZM58.533 69.536L57.237 68.168H60.909C61.809 68.168 62.481 67.976 62.925 67.592C63.369 67.196 63.591 66.656 63.591 65.972C63.591 65.276 63.369 64.736 62.925 64.352C62.481 63.968 61.809 63.776 60.909 63.776H57.237L58.533 62.39V69.536ZM71.5354 66.476H77.6014V68.744H71.5354V66.476ZM71.7514 71.66H78.6094V74H68.8534V61.4H78.3754V63.74H71.7514V71.66ZM83.6115 66.476H89.6775V68.744H83.6115V66.476ZM83.8275 71.66H90.6855V74H80.9295V61.4H90.4515V63.74H83.8275V71.66ZM93.0057 74V61.4H95.4177L102.852 70.472H101.682V61.4H104.562V74H102.168L94.7157 64.928H95.8857V74H93.0057ZM107.543 74V61.4H110.459V74H107.543ZM116.131 66.476H122.197V68.744H116.131V66.476ZM116.347 71.66H123.205V74H113.449V61.4H122.971V63.74H116.347V71.66Z" fill="#F28300"/>
<g clip-path="url(#clip0_2_1343)">
<path d="M37.264 3.10498C36.5461 8.62693 34.3369 28.3297 38.2945 35.1659C41.3954 40.5259 46.5111 42.8521 52.3241 41.7204C48.383 39.3551 45.8364 35.4846 45.207 30.6301L42.7715 30.136C42.1472 30.0102 41.7441 29.3995 41.8706 28.7743C41.9971 28.1492 42.6018 27.7387 43.2282 27.8707L45.0373 28.2369C45.0383 26.3068 45.6379 24.0003 46.5985 21.5328L43.9697 16.9898C43.6509 16.4369 43.8381 15.7313 44.3883 15.4105C44.9375 15.0886 45.642 15.2764 45.9619 15.8303L47.735 18.893C49.0566 16.0614 50.73 13.1225 52.4589 10.3558C46.4443 6.98365 40.0028 4.22835 37.264 3.10498Z" fill="#F28300"/>
<path d="M86.7044 35.1659C90.6641 28.3266 88.4529 8.62693 87.735 3.10498C84.9961 4.23041 78.5516 6.98674 72.5411 10.3569C74.27 13.1225 75.9413 16.0604 77.2639 18.893L79.0371 15.8303C79.3559 15.2774 80.0625 15.0897 80.6117 15.4105C81.1629 15.7303 81.3501 16.4379 81.0303 16.9898L78.4015 21.5328C79.3631 24.0003 79.9606 26.3068 79.9627 28.2379L81.7718 27.8707C82.3961 27.7469 83.0019 28.1492 83.1294 28.7743C83.2549 29.3995 82.8517 30.0081 82.2285 30.136L79.793 30.6301C79.1615 35.4836 76.615 39.3551 72.6759 41.7204C78.4868 42.851 83.6015 40.5238 86.7044 35.1659Z" fill="#F28300"/>
<path d="M61.347 32.9295L53.7311 26.1511C53.2559 25.7282 53.2117 24.9968 53.6344 24.5202C54.0551 24.0416 54.7832 23.9993 55.2594 24.4232L61.347 29.841V15.3868C61.347 14.7493 61.8633 14.2314 62.499 14.2314C63.1366 14.2314 63.6509 14.7493 63.6509 15.3868V21.8815L69.0082 18.1792C69.5328 17.8161 70.2517 17.9502 70.6106 18.4753C70.9706 19.0014 70.84 19.7203 70.3155 20.0824L63.6509 24.6894V41.9587C65.5546 41.8618 67.3112 41.5317 68.8828 40.9757C68.9301 40.9519 68.9774 40.9365 69.0268 40.9179C74.4171 38.9507 77.6578 34.4067 77.6578 28.2472C77.6578 26.442 77.0387 24.2159 76.0513 21.8072C76.04 21.7752 76.0215 21.7463 76.0122 21.7123C74.5333 18.1338 72.2439 14.1571 69.9185 10.5343C69.9174 10.5333 69.9164 10.5333 69.9164 10.5322V10.5312C66.9616 5.92735 63.9532 1.8991 62.499 0C61.0467 1.89498 58.0518 5.90981 55.101 10.4982C55.0959 10.5095 55.0959 10.5219 55.0897 10.5333C55.0784 10.5518 55.0609 10.5622 55.0486 10.5807C52.7335 14.1912 50.4585 18.1482 48.9846 21.7113C48.9764 21.7422 48.9589 21.769 48.9476 21.802C47.9592 24.2118 47.3391 26.4399 47.3391 28.2452C47.3391 34.4046 50.5808 38.9497 55.9701 40.9158C56.0185 40.9344 56.0658 40.9478 56.112 40.9726C57.6846 41.5286 59.4413 41.8597 61.345 41.9567V32.9295H61.347Z" fill="#F28300"/>
</g>
<defs>
<clipPath id="clip0_2_1343">
<rect width="53" height="42" fill="white" transform="translate(36)"/>
</clipPath>
</defs>
</svg>
