<svg width="45" height="45" viewBox="0 0 45 45" fill="none" xmlns="http://www.w3.org/2000/svg">
<path d="M25.5375 15.7163L29.2238 12.0282C28.7876 11.5922 28.4658 11.0554 28.2867 10.4653C28.1076 9.87518 28.0767 9.25003 28.1969 8.64519C28.3171 8.04035 28.5846 7.47448 28.9757 6.99771C29.3668 6.52094 29.8695 6.14798 30.4392 5.91187C31.0089 5.67575 31.628 5.58377 32.2417 5.64407C32.8554 5.70437 33.4448 5.91509 33.9576 6.25756C34.4704 6.60004 34.8909 7.06369 35.1817 7.60747C35.4726 8.15125 35.6248 8.75836 35.625 9.37503C36.2418 9.37459 36.8492 9.52631 37.3934 9.81675C37.9376 10.1072 38.4017 10.5274 38.7446 11.0401C39.0876 11.5528 39.2988 12.1422 39.3595 12.756C39.4202 13.3698 39.3285 13.9892 39.0926 14.5591C38.8567 15.1291 38.4839 15.632 38.0072 16.0234C37.5304 16.4148 36.9645 16.6825 36.3595 16.8029C35.7545 16.9233 35.1292 16.8926 34.539 16.7135C33.9487 16.5344 33.4117 16.2125 32.9756 15.7763L29.5631 19.1907" stroke="black" stroke-width="2" stroke-linecap="round" stroke-linejoin="round"/>
<path d="M11.0694 34.8682C16.195 39.9938 22.131 42.3682 24.3277 40.1715C26.5244 37.9748 24.15 32.0389 19.0244 26.9132C13.8987 21.7876 7.9628 19.4132 5.7661 21.6099C3.5694 23.8066 5.94377 29.7425 11.0694 34.8682Z" stroke="black" stroke-width="2" stroke-linecap="round" stroke-linejoin="round"/>
<path d="M24.3281 40.1719C31.65 32.8482 33.4313 22.7569 28.305 17.6326C23.1806 12.5063 13.0894 14.2876 5.7675 21.6094M14.0625 30.0001L15.9375 31.8751L14.0625 30.0001Z" stroke="black" stroke-width="2" stroke-linecap="round" stroke-linejoin="round"/>
</svg>
