<svg width="42" height="42" viewBox="0 0 42 42" fill="none" xmlns="http://www.w3.org/2000/svg">
<path d="M21 38.5C30.6652 38.5 38.5 30.6652 38.5 21C38.5 11.3348 30.6652 3.5 21 3.5C11.3348 3.5 3.5 11.3348 3.5 21C3.5 30.6652 11.3348 38.5 21 38.5Z" stroke="#F28300" stroke-width="2.5" stroke-linecap="round" stroke-linejoin="round"/>
<path d="M21 28.6843V32.375M26.25 14.875C25.0512 13.6762 22.9407 12.8433 21 12.7908L26.25 14.875ZM15.75 26.25C16.877 27.755 18.9753 28.6125 21 28.6843L15.75 26.25ZM21 12.7908C18.69 12.7278 16.625 13.7725 16.625 16.625C16.625 21.875 26.25 19.25 26.25 24.5C26.25 27.4942 23.688 28.7805 21 28.6843V12.7908ZM21 12.7908V9.625V12.7908Z" stroke="#F28300" stroke-width="2.5" stroke-linecap="round" stroke-linejoin="round"/>
</svg>
