<svg width="36" height="37" viewBox="0 0 36 37" fill="none" xmlns="http://www.w3.org/2000/svg">
<path d="M28.1877 15.2741C28.1877 15.776 27.7767 16.1894 27.2614 16.1894C26.7462 16.1894 26.3351 15.776 26.3351 15.2741C26.3351 14.7722 26.7462 14.3587 27.2614 14.3587C27.7767 14.3587 28.1877 14.7722 28.1877 15.2741Z" fill="#F28300" stroke="#F28300"/>
<path d="M35.4747 26.3257C35.4747 26.7512 35.1261 27.1027 34.6878 27.1027C34.2496 27.1027 33.9009 26.7512 33.9009 26.3257C33.9009 25.9002 34.2496 25.5486 34.6878 25.5486C35.1261 25.5486 35.4747 25.9002 35.4747 26.3257Z" fill="#F28300" stroke="#F28300"/>
<path d="M21.9778 15.2741C21.9778 15.776 21.5667 16.1894 21.0515 16.1894C20.5362 16.1894 20.1251 15.776 20.1251 15.2741C20.1251 14.7722 20.5362 14.3587 21.0515 14.3587C21.5667 14.3587 21.9778 14.7722 21.9778 15.2741Z" fill="#F28300" stroke="#F28300"/>
<path d="M9.55446 27.5974C9.55446 28.0993 9.14337 28.5128 8.62812 28.5128C8.11287 28.5128 7.70178 28.0993 7.70178 27.5974C7.70178 27.0955 8.11287 26.682 8.62812 26.682C9.14337 26.682 9.55446 27.0955 9.55446 27.5974Z" fill="#F28300" stroke="#F28300"/>
<path d="M9.55446 15.2741C9.55446 15.776 9.14337 16.1894 8.62812 16.1894C8.11287 16.1894 7.70178 15.776 7.70178 15.2741C7.70178 14.7722 8.11287 14.3587 8.62812 14.3587C9.14337 14.3587 9.55446 14.7722 9.55446 15.2741Z" fill="#F28300" stroke="#F28300"/>
<path d="M9.55446 21.441C9.55446 21.943 9.14337 22.3564 8.62812 22.3564C8.11287 22.3564 7.70178 21.943 7.70178 21.441C7.70178 20.9391 8.11287 20.5257 8.62812 20.5257C9.14337 20.5257 9.55446 20.9391 9.55446 21.441Z" fill="#F28300" stroke="#F28300"/>
<path d="M15.7688 21.4357C15.7688 21.9376 15.3577 22.3511 14.8425 22.3511C14.3272 22.3511 13.9161 21.9376 13.9161 21.4357C13.9161 20.9338 14.3272 20.5204 14.8425 20.5204C15.3577 20.5204 15.7688 20.9338 15.7688 21.4357Z" fill="#F28300" stroke="#F28300"/>
<path d="M14.915 14.3582C15.4285 14.4003 15.8038 14.846 15.7621 15.3463C15.7204 15.8465 15.2763 16.2249 14.7629 16.1827C14.2494 16.1406 13.8741 15.6949 13.9158 15.1946C13.9575 14.6944 14.4016 14.316 14.915 14.3582Z" fill="#F28300" stroke="#F28300"/>
<path d="M15.7634 27.592C15.7634 28.094 15.3524 28.5074 14.8371 28.5074C14.3219 28.5074 13.9108 28.094 13.9108 27.592C13.9108 27.0901 14.3219 26.6767 14.8371 26.6767C15.3524 26.6767 15.7634 27.0901 15.7634 27.592Z" fill="#F28300" stroke="#F28300"/>
<path d="M34.1852 31.0256V31.0241C34.1852 30.6622 34.4754 30.3747 34.8166 30.3747C35.1903 30.3747 35.4645 30.6659 35.4588 30.9942H35.4588V31.0028C35.4588 33.6868 33.2519 35.8823 30.5376 35.8823H5.42116C2.70124 35.8823 0.5 33.6971 0.5 31.0028V8.9049C0.5 6.21588 2.70138 4.02515 5.42166 4.0201H7.49633H7.99633V3.5201V1.82272C7.99633 1.45927 8.29791 1.1679 8.6639 1.18857L8.66624 1.18869C9.00217 1.20608 9.27525 1.49357 9.27525 1.85465V3.5201V4.0201H9.77525H16.7675H17.2675V3.5201V1.82272C17.2675 1.45927 17.5691 1.1679 17.9351 1.18857L17.9374 1.18869C18.2734 1.20608 18.5465 1.49357 18.5465 1.85465V3.5201V4.0201H19.0465H26.1138H26.6138V3.5201V1.82272C26.6138 1.45927 26.9154 1.1679 27.2814 1.18857L27.2837 1.18869C27.6197 1.20608 27.8927 1.49357 27.8927 1.85465V3.5201V4.0201H28.3927H30.5322C33.2575 4.0201 35.4534 6.21059 35.4534 8.88894V21.4198C35.4534 21.7625 35.1661 22.0531 34.8113 22.0531C34.4564 22.0531 34.1691 21.7625 34.1691 21.4198V8.88894C34.1691 6.88518 32.5367 5.27086 30.5269 5.27086H28.3874H27.8874V5.77086V7.48953C27.8874 7.85299 27.5858 8.14435 27.2198 8.12368L27.2175 8.12356C26.8815 8.10617 26.6085 7.81868 26.6085 7.4576V5.79215V5.29215H26.1085H19.0411H18.5411V5.79215V7.48953C18.5411 7.85298 18.2395 8.14435 17.8735 8.12368L17.8712 8.12356C17.5353 8.10617 17.2622 7.81868 17.2622 7.4576V5.79215V5.29215H16.7622H9.76989H9.26989V5.79215V7.48421C9.26989 7.84766 8.96831 8.13903 8.60232 8.11836L8.59998 8.11824C8.26405 8.10085 7.99096 7.81336 7.99096 7.45228V5.78683V5.28683H7.49096H5.42116C3.41132 5.28683 1.77893 6.90114 1.77893 8.9049V31.0081C1.77893 33.0119 3.41132 34.6262 5.42116 34.6262H30.543C32.5461 34.6262 34.179 33.0189 34.1852 31.0256Z" fill="#F28300" stroke="#F28300"/>
<path d="M26.3188 25.51L26.31 25.5176L26.3016 25.5255C26.0843 25.7303 25.9506 26.0547 26.0288 26.391L26.0289 26.3913L26.5636 28.6841L24.5423 27.4719L24.5424 27.4718L24.5357 27.4679C24.252 27.3037 23.9001 27.3037 23.6164 27.4679L23.6164 27.4679L23.6098 27.4719L21.5886 28.684L22.1223 26.4003C22.2084 26.0505 22.0729 25.7249 21.8416 25.5173L21.8417 25.5172L21.8333 25.51L20.0568 23.9845L22.4044 23.7859C22.7591 23.7597 23.0391 23.5309 23.1658 23.2453L23.1658 23.2453L23.1688 23.2384L24.0841 21.0867L24.9969 23.2324C25.1207 23.5417 25.4105 23.7598 25.7466 23.7858L28.0953 23.9845L26.3188 25.51Z" fill="#F28300" stroke="#F28300"/>
</svg>
